<?xml version="1.0" encoding="UTF-8"?>
<svg width="168.99" height="48.802" version="1.1" viewBox="0 0 44.711 12.912" xmlns="http://www.w3.org/2000/svg" xmlns:xlink="http://www.w3.org/1999/xlink">
 <g transform="translate(.062283 -275.1)">
  <g fill="#fff" style="font-feature-settings:normal;font-variant-caps:normal;font-variant-ligatures:normal;font-variant-numeric:normal" aria-label="kotiranta">
   <path d="m32.633 279.58q0.3429 0 0.52324 0.15748 0.18034 0.15494 0.18034 0.47752v0.76454h-0.44958v-0.1778q-0.10414 0.20066-0.4064 0.20066-0.16002 0-0.27686-0.0559t-0.1778-0.14986q-0.05842-0.0965-0.05842-0.21844 0-0.19558 0.14986-0.30226 0.14986-0.10922 0.46228-0.10922h0.27432q-0.0127-0.21844-0.2921-0.21844-0.09906 0-0.20066 0.033-0.1016 0.0305-0.17272 0.0864l-0.16256-0.32766q0.1143-0.0762 0.27686-0.11684 0.1651-0.0432 0.3302-0.0432zm-0.01778 1.1176q0.08382 0 0.14732-0.0406t0.09144-0.11938v-0.11938h-0.20828q-0.21082 0-0.21082 0.1397 0 0.0635 0.04826 0.1016t0.13208 0.0381zm-0.75506 0.22606q-0.06096 0.0381-0.14986 0.0584-0.08636 0.0203-0.18542 0.0203-0.26924 0-0.41402-0.13208t-0.14478-0.3937v-0.46228h-0.20066v-0.36068h0.20066v-0.35814h0.4826v0.35814h0.31496v0.36068h-0.31496v0.4572q0 0.0737 0.0381 0.11684 0.04064 0.0406 0.10668 0.0406 0.08382 0 0.14732-0.0432zm-1.8194-1.3437q0.25654 0 0.41148 0.1524 0.15748 0.1524 0.15748 0.45974v0.7874h-0.4826v-0.70866q0-0.28194-0.22606-0.28194-0.12446 0-0.20066 0.0813-0.07366 0.0813-0.07366 0.24384v0.66548h-0.4826v-1.3767h0.45974v0.14986q0.08128-0.0838 0.19304-0.127 0.11176-0.0457 0.24384-0.0457zm-1.9073 0q0.3429 0 0.52324 0.15748 0.18034 0.15494 0.18034 0.47752v0.76454h-0.44958v-0.1778q-0.10414 0.20066-0.4064 0.20066-0.16002 0-0.27686-0.0559t-0.1778-0.14986q-0.05842-0.0965-0.05842-0.21844 0-0.19558 0.14986-0.30226 0.14986-0.10922 0.46228-0.10922h0.27432q-0.0127-0.21844-0.2921-0.21844-0.09906 0-0.20066 0.033-0.1016 0.0305-0.17272 0.0864l-0.16256-0.32766q0.1143-0.0762 0.27686-0.11684 0.1651-0.0432 0.3302-0.0432zm-0.01778 1.1176q0.08382 0 0.14732-0.0406t0.09144-0.11938v-0.11938h-0.20828q-0.21082 0-0.21082 0.1397 0 0.0635 0.04826 0.1016t0.13208 0.0381zm-1.2205-0.92964q0.07366-0.094 0.1905-0.1397 0.11938-0.0483 0.27178-0.0483v0.43434q-0.06604-8e-3 -0.10922-8e-3 -0.15494 0-0.24384 0.0838-0.08636 0.0838-0.08636 0.25654v0.63246h-0.4826v-1.3767h0.45974zm-1.2535-0.1651h0.4826v1.3767h-0.4826zm0.2413-0.1524q-0.13208 0-0.21336-0.0737t-0.08128-0.18288q0-0.10922 0.08128-0.18288 0.08128-0.0737 0.21336-0.0737t0.21336 0.0711q0.08128 0.0686 0.08128 0.1778 0 0.1143-0.08128 0.1905-0.08128 0.0737-0.21336 0.0737zm-0.4274 1.4732q-0.06096 0.0381-0.14986 0.0584-0.08636 0.0203-0.18542 0.0203-0.26924 0-0.41402-0.13208t-0.14478-0.3937v-0.46228h-0.20066v-0.36068h0.20066v-0.35814h0.4826v0.35814h0.31496v0.36068h-0.31496v0.4572q0 0.0737 0.0381 0.11684 0.04064 0.0406 0.10668 0.0406 0.08382 0 0.14732-0.0432zm-1.9508 0.0787q-0.22098 0-0.39878-0.0914t-0.2794-0.254q-0.09906-0.16256-0.09906-0.3683 0-0.2032 0.09906-0.36576 0.1016-0.16256 0.27686-0.25146 0.1778-0.0914 0.40132-0.0914t0.40132 0.0914q0.1778 0.0889 0.27686 0.25146 0.09906 0.16002 0.09906 0.36576t-0.09906 0.3683-0.27686 0.254q-0.1778 0.0914-0.40132 0.0914zm0-0.38354q0.127 0 0.20828-0.0864 0.08128-0.0889 0.08128-0.24384 0-0.1524-0.08128-0.23876-0.08128-0.0864-0.20828-0.0864t-0.20828 0.0864-0.08128 0.23876q0 0.15494 0.08128 0.24384 0.08128 0.0864 0.20828 0.0864zm-1.7478-0.12192-0.14224 0.14478v0.33782h-0.4826v-1.8847h0.4826v0.98806l0.49276-0.48006h0.5715l-0.5715 0.58928 0.61976 0.7874h-0.5842zm22.229 2.473q0.06343-0.0809 0.16404-0.1203 0.1028-0.0416 0.23403-0.0416v0.37402q-0.05687-7e-3 -0.09405-7e-3 -0.13342 0-0.20997 0.0722-0.07437 0.0722-0.07437 0.22091v0.54461h-0.41557v-1.1855h0.39589zm-0.58963 0.45275q0 4e-3 -0.0066 0.1028h-0.86177q0.02625 0.0919 0.10061 0.14217 0.07655 0.0481 0.19029 0.0481 0.0853 0 0.14654-0.0241 0.06343-0.0241 0.12686-0.0787l0.21872 0.22747q-0.17279 0.19248-0.50525 0.19248-0.20779 0-0.36527-0.0787t-0.24497-0.21872q-0.0853-0.13999-0.0853-0.31715 0-0.17498 0.08311-0.31277 0.0853-0.13999 0.23403-0.21873 0.14873-0.0787 0.33464-0.0787 0.17716 0 0.32152 0.0744 0.14436 0.0722 0.22747 0.21216 0.0853 0.1378 0.0853 0.32808zm-0.63211-0.31933q-0.09624 0-0.16185 0.0547-0.06343 0.0547-0.08093 0.14873h0.48556q-0.0175-0.0941-0.08311-0.14873-0.06343-0.0547-0.15967-0.0547zm-1.3546-0.29528q0.16185 0 0.29309 0.0766 0.13342 0.0744 0.20997 0.21435 0.07874 0.13779 0.07874 0.32152 0 0.18372-0.07874 0.32371-0.07655 0.13779-0.20997 0.21434-0.13123 0.0744-0.29309 0.0744-0.20779 0-0.33027-0.12467v0.52931h-0.41557v-1.6098h0.39589v0.11811q0.11592-0.1378 0.34996-0.1378zm-0.08749 0.89458q0.10936 0 0.17935-0.0744 0.06999-0.0765 0.06999-0.20778 0-0.13124-0.06999-0.2056-0.06999-0.0765-0.17935-0.0765-0.10936 0-0.17935 0.0765-0.06999 0.0744-0.06999 0.2056 0 0.13123 0.06999 0.20778 0.06999 0.0744 0.17935 0.0744zm-1.5202 0.33027q-0.19029 0-0.34339-0.0787-0.1531-0.0787-0.24059-0.21872-0.0853-0.13999-0.0853-0.31715 0-0.17498 0.0853-0.31496 0.08749-0.13998 0.23841-0.21654 0.15311-0.0787 0.34558-0.0787 0.19248 0 0.34558 0.0787 0.15311 0.0766 0.23841 0.21654 0.0853 0.13779 0.0853 0.31496 0 0.17716-0.0853 0.31715-0.0853 0.13998-0.23841 0.21872-0.1531 0.0787-0.34558 0.0787zm0-0.33027q0.10936 0 0.17935-0.0744 0.06999-0.0765 0.06999-0.20997 0-0.13123-0.06999-0.2056-0.06999-0.0744-0.17935-0.0744-0.10936 0-0.17935 0.0744-0.06999 0.0744-0.06999 0.2056 0 0.13342 0.06999 0.20997 0.06999 0.0744 0.17935 0.0744zm-1.2784-1.3123h0.41557v1.6229h-0.41557zm-0.19374 1.0324q0 4e-3 -0.0066 0.1028h-0.86173q0.02625 0.0919 0.10061 0.14217 0.07655 0.0481 0.19029 0.0481 0.0853 0 0.14654-0.0241 0.06343-0.0241 0.12686-0.0787l0.21872 0.22747q-0.17279 0.19248-0.50525 0.19248-0.20779 0-0.36527-0.0787t-0.24497-0.21872q-0.0853-0.13999-0.0853-0.31715 0-0.17498 0.08311-0.31277 0.0853-0.13999 0.23403-0.21873 0.14873-0.0787 0.33464-0.0787 0.17716 0 0.32152 0.0744 0.14436 0.0722 0.22747 0.21216 0.0853 0.1378 0.0853 0.32808zm-0.63211-0.31933q-0.09624 0-0.16185 0.0547-0.06343 0.0547-0.08093 0.14873h0.48556q-0.0175-0.0941-0.08311-0.14873-0.06343-0.0547-0.15967-0.0547zm-0.65073-0.27559-0.48994 1.1855h-0.4287l-0.48775-1.1855h0.42651l0.28434 0.72397 0.29965-0.72397zm-1.4213 0.59492q0 4e-3 -0.0066 0.1028h-0.86177q0.02625 0.0919 0.10061 0.14217 0.07655 0.0481 0.19029 0.0481 0.0853 0 0.14654-0.0241 0.06343-0.0241 0.12686-0.0787l0.21872 0.22747q-0.17279 0.19248-0.50525 0.19248-0.20779 0-0.36527-0.0787t-0.24497-0.21872q-0.0853-0.13999-0.0853-0.31715 0-0.17498 0.08311-0.31277 0.0853-0.13999 0.23403-0.21873 0.14873-0.0787 0.33464-0.0787 0.17716 0 0.32152 0.0744 0.14436 0.0722 0.22747 0.21216 0.0853 0.1378 0.0853 0.32808zm-0.63211-0.31933q-0.09624 0-0.16185 0.0547-0.06343 0.0547-0.08093 0.14873h0.48556q-0.0175-0.0941-0.08311-0.14873-0.06343-0.0547-0.15967-0.0547zm-0.84485-0.71303v1.6229h-0.39589v-0.11811q-0.11592 0.1378-0.34777 0.1378-0.16186 0-0.29528-0.0744-0.13342-0.0765-0.21216-0.21653-0.07655-0.13998-0.07655-0.32371t0.07655-0.32152q0.07874-0.13998 0.21216-0.21435 0.13342-0.0744 0.29528-0.0744 0.21216 0 0.32808 0.12249v-0.54024zm-0.65617 1.3123q0.10717 0 0.17716-0.0744 0.06999-0.0765 0.06999-0.20997 0-0.13123-0.06999-0.2056-0.0678-0.0744-0.17716-0.0744-0.10936 0-0.17935 0.0744-0.06999 0.0744-0.06999 0.2056 0 0.13342 0.06999 0.20997 0.06999 0.0744 0.17935 0.0744zm-2.2016-0.10499-0.12248 0.12467v0.2909h-0.41557v-1.6229h0.41557v0.85082l0.42432-0.41338h0.49212l-0.49212 0.50744 0.53368 0.67803h-0.50306zm-1.2479 0.43526q-0.19685 0-0.35214-0.0787t-0.24278-0.21872q-0.0853-0.13999-0.0853-0.31715 0-0.17717 0.0853-0.31496 0.08749-0.13998 0.24278-0.21654 0.15529-0.0787 0.35214-0.0787 0.20122 0 0.34777 0.0875 0.14654 0.0853 0.20779 0.23841l-0.32152 0.16404q-0.08093-0.15966-0.23622-0.15966-0.11155 0-0.18591 0.0744-0.07218 0.0744-0.07218 0.2056 0 0.13342 0.07218 0.20997 0.07437 0.0744 0.18591 0.0744 0.15529 0 0.23622-0.15967l0.32152 0.16404q-0.06124 0.15311-0.20779 0.2406-0.14654 0.0853-0.34777 0.0853zm-1.4933-1.2248q0.29528 0 0.45057 0.13561 0.15529 0.13342 0.15529 0.4112v0.65835h-0.38714v-0.1531q-0.08968 0.17279-0.34996 0.17279-0.1378 0-0.23841-0.0481t-0.15311-0.12905q-0.05031-0.0831-0.05031-0.1881 0-0.16841 0.12905-0.26028 0.12905-0.094 0.39808-0.094h0.23622q-0.01094-0.1881-0.25153-0.1881-0.0853 0-0.17279 0.0284-0.08749 0.0262-0.14873 0.0744l-0.13998-0.28215q0.09843-0.0656 0.23841-0.10061 0.14217-0.0372 0.28434-0.0372zm-0.01531 0.96238q0.07218 0 0.12686-0.035 0.05468-0.035 0.07874-0.1028v-0.1028h-0.17935q-0.18154 0-0.18154 0.1203 0 0.0547 0.04156 0.0875t0.11374 0.0328zm-0.65019 0.19467q-0.05249 0.0328-0.12905 0.0503-0.07437 0.0175-0.15967 0.0175-0.23185 0-0.35652-0.11374-0.12467-0.11373-0.12467-0.33902v-0.39807h-0.17279v-0.31059h0.17279v-0.30839h0.41557v0.30839h0.27122v0.31059h-0.27122v0.3937q0 0.0634 0.03281 0.10061 0.035 0.035 0.09186 0.035 0.07218 0 0.12686-0.0372zm-1.5833 0.0678q-0.14873 0-0.29309-0.0328-0.14436-0.035-0.23184-0.0897l0.12467-0.28433q0.08093 0.0503 0.19248 0.0809 0.11155 0.0284 0.22091 0.0284 0.10061 0 0.14217-0.0197 0.04374-0.0219 0.04374-0.0612 0-0.0394-0.05249-0.0547-0.05031-0.0175-0.16185-0.0328-0.14217-0.0175-0.24278-0.0459-0.09842-0.0284-0.1706-0.10499-0.07218-0.0765-0.07218-0.21435 0-0.11373 0.0678-0.20122 0.0678-0.0897 0.19685-0.13998 0.13123-0.0525 0.31277-0.0525 0.12905 0 0.2559 0.0263t0.21216 0.0744l-0.12467 0.28215q-0.15748-0.0875-0.34121-0.0875-0.09843 0-0.14436 0.0241-0.04593 0.0219-0.04593 0.059 0 0.0416 0.05031 0.0591 0.05031 0.0153 0.16623 0.0328 0.14654 0.0219 0.24278 0.0503 0.09624 0.0284 0.16623 0.10499 0.07218 0.0744 0.07218 0.20997 0 0.11155-0.0678 0.20123-0.0678 0.0875-0.20122 0.13779-0.13123 0.0503-0.31715 0.0503zm-1.3094-0.80271h0.63867v0.31933h-0.63867zm-0.65507-0.83989h0.41557v1.6229h-0.41557zm-0.68351 0h0.41557v1.6229h-0.41557zm-0.26554 0.43744v1.1855h-0.39589v-0.12685q-0.06562 0.0722-0.15748 0.10936-0.09186 0.0372-0.19466 0.0372-0.22966 0-0.36745-0.13561-0.13561-0.13561-0.13561-0.40682v-0.66273h0.41557v0.59492q0 0.13342 0.05031 0.19467 0.05031 0.0612 0.14654 0.0612 0.09842 0 0.15967-0.0678 0.06343-0.07 0.06343-0.21217v-0.57086zm-1.6825 0.0437h0.28215v0.31059h-0.27122v0.83114h-0.41557v-0.83114h-0.17279v-0.31059h0.17279v-0.0306q0-0.21653 0.12905-0.34339 0.13123-0.12686 0.36527-0.12686 0.07874 0 0.1531 0.0153 0.07437 0.0153 0.12248 0.0459l-0.1028 0.29309q-0.06124-0.035-0.12467-0.035-0.06562 0-0.1028 0.0394-0.03499 0.0394-0.03499 0.11593zm-8.1015-7.5093c0.77914-5e-3 1.1264 0.0498 1.5556 0.39321 0.42914 0.34319 0.4618 0.85463 0.46546 1.5344l0.0097 1.8017h1.4106l-0.0101 1.4057-1.4199 2e-3 0.0077 2.1181-1.677-2e-3 -0.0033-2.118h-1.4003v-1.4057h1.4005v-1.7819c0-0.19138-0.05647-0.34316-0.1694-0.45535-0.12047-0.10568-0.27542-0.17773-0.47116-0.17773-0.24845 0-0.2654 4e-3 -0.49142 2e-3 9.26e-4 -0.89677-0.0074-1.1662-0.0073-1.3133 0.33183-8.7e-4 0.54296-8.7e-4 0.80044-4e-3zm2.3577 12.381c-0.77914 5e-3 -1.1264-0.0498-1.5556-0.39321-0.42914-0.34319-0.4618-0.85463-0.46546-1.5344l-0.0097-1.8017h-1.4106l0.0101-1.4057 1.4199-2e-3 -0.0077-2.1181 1.677 2e-3 0.0033 2.118h1.4003v1.4057h-1.4005v1.7819c0 0.19138 0.05647 0.34316 0.1694 0.45535 0.12047 0.10568 0.27542 0.17773 0.47116 0.17773 0.24845 0 0.2654-4e-3 0.49142-2e-3 -9.26e-4 0.89677 0.0074 1.1662 0.0073 1.3133-0.33183 8.8e-4 -0.54296 8.8e-4 -0.80044 4e-3zm2.1505-8.6482 1.6835 2e-3 0.0025 4.9186-1.6835-2e-3zm-8.7164-0.0822q0.91669 0 1.4703 0.54457 0.56272 0.54457 0.56272 1.6428v2.8136h-1.7245v-2.5322q0-1.0074-0.80778-1.0074-0.44473 0-0.71701 0.29044-0.26321 0.29043-0.26321 0.8713v2.378h-1.7245v-4.9193h1.6428v0.53549q0.29044-0.29951 0.68979-0.45381 0.39935-0.16337 0.87131-0.16337zm-6.8153 0q1.2253 0 1.8697 0.56272 0.64441 0.55365 0.64441 1.7063v2.7319h-1.6065v-0.63533q-0.37212 0.71701-1.4522 0.71701-0.5718 0-0.9893-0.19967-0.4175-0.19968-0.63533-0.53549-0.20875-0.3449-0.20875-0.78055 0-0.69886 0.53549-1.0801 0.53549-0.39027 1.6519-0.39027h0.98022q-0.045381-0.78055-1.0438-0.78055-0.35397 0-0.71701 0.11799-0.36305 0.10891-0.61718 0.30859l-0.58087-1.1708q0.40843-0.27229 0.9893-0.4175 0.58995-0.1543 1.1799-0.1543zm-0.063533 3.9935q0.29951 0 0.52642-0.14522t0.32674-0.42658v-0.42658h-0.74424q-0.75332 0-0.75332 0.49919 0 0.2269 0.17245 0.36305 0.17245 0.13614 0.47196 0.13614z" fill="#fff" stroke-width=".26458" style="font-feature-settings:normal;font-variant-caps:normal;font-variant-ligatures:normal;font-variant-numeric:normal"/>
  </g>
 </g>
</svg>
