<svg xmlns="http://www.w3.org/2000/svg" viewBox="0 0 37.342 16.019" height="60.542" width="141.135"><g aria-label="full stack developer" style="font-style:normal;font-variant:normal;font-weight:400;font-stretch:normal;font-size:5.81983995px;line-height:1.25;font-family:Montserrat;-inkscape-font-specification:Montserrat;letter-spacing:0;word-spacing:0;fill:#fff;fill-opacity:1;stroke:none;stroke-width:.14549598"><path d="M77.808 150.653v.276h-.317q-.18 0-.25.072-.068.072-.068.26v.178h.547v.258h-.547v1.763h-.334v-1.763h-.317v-.258h.317v-.14q0-.338.157-.491.157-.155.498-.155zM78.052 152.663v-1.224h.332v1.211q0 .287.112.431.112.143.335.143.27 0 .424-.171.157-.172.157-.468v-1.146h.332v2.021h-.332v-.31q-.12.184-.281.274-.159.089-.37.089-.348 0-.529-.217-.18-.216-.18-.633zm.835-1.272zM80.428 150.653h.332v2.807h-.332zM81.455 150.653h.332v2.807h-.332zM84.945 151.499v.314q-.14-.072-.292-.108-.152-.036-.314-.036-.248 0-.372.075-.123.076-.123.228 0 .115.089.182.088.065.355.124l.114.026q.354.076.502.215.15.137.15.384 0 .281-.224.446-.222.164-.612.164-.163 0-.34-.033-.174-.03-.37-.093v-.343q.185.095.363.144.179.047.354.047.235 0 .36-.08.127-.08.127-.227 0-.135-.092-.207-.09-.073-.399-.14l-.115-.026q-.309-.065-.446-.199-.137-.135-.137-.37 0-.285.202-.44.202-.155.574-.155.184 0 .346.027.163.027.3.081zM85.91 150.866v.573h.684v.258h-.684v1.098q0 .247.067.317.069.07.276.07h.341v.278h-.34q-.385 0-.531-.142-.146-.144-.146-.523v-1.098h-.244v-.258h.244v-.573zM87.95 152.445q-.403 0-.558.092-.155.092-.155.313 0 .177.115.282.118.103.318.103.276 0 .442-.195.168-.197.168-.522v-.074zm.662-.138v1.153h-.332v-.306q-.114.184-.284.272-.17.087-.415.087-.31 0-.494-.173-.182-.176-.182-.468 0-.34.227-.514.23-.173.682-.173h.466v-.033q0-.229-.152-.354-.15-.126-.422-.126-.173 0-.338.042-.164.041-.315.124v-.307q.182-.07.353-.104.172-.036.334-.036.439 0 .655.227.217.227.217.69zM90.75 151.517v.31q-.14-.077-.283-.115-.14-.04-.285-.04-.323 0-.502.206-.179.204-.179.574t.18.575q.178.204.5.204.145 0 .286-.038.142-.04.283-.117v.307q-.139.065-.289.097-.148.033-.315.033-.457 0-.726-.287-.269-.287-.269-.774 0-.495.271-.778.273-.283.745-.283.154 0 .3.032.146.03.283.094zM91.315 150.653h.334v1.658l.99-.872h.425l-1.072.946 1.117 1.075h-.433l-1.027-.987v.987h-.334zM95.972 151.746v-1.093h.332v2.807h-.332v-.303q-.104.18-.265.27-.159.086-.382.086-.367 0-.598-.293-.229-.292-.229-.768 0-.477.23-.769.23-.292.597-.292.223 0 .382.088.16.087.265.267zm-1.131.706q0 .366.15.575.151.208.415.208.263 0 .415-.208.151-.209.151-.575 0-.367-.151-.574-.152-.21-.415-.21-.264 0-.415.21-.15.207-.15.574zM98.717 152.367v.162H97.19q.022.343.206.524.186.178.516.178.192 0 .37-.047.18-.047.358-.14v.314q-.18.075-.367.115-.187.04-.38.04-.484 0-.767-.282-.282-.281-.282-.761 0-.496.267-.787.269-.292.724-.292.408 0 .644.263.238.262.238.713zm-.332-.097q-.004-.273-.153-.435-.148-.163-.394-.163-.278 0-.445.157-.166.157-.192.442zM99.024 151.44h.352l.631 1.696.632-1.697h.352l-.758 2.021h-.451zM103.178 152.367v.162h-1.527q.022.343.206.524.186.178.516.178.191 0 .37-.047.18-.047.357-.14v.314q-.178.075-.366.115-.188.04-.38.04-.484 0-.768-.282-.281-.281-.281-.761 0-.496.267-.787.269-.292.723-.292.408 0 .645.263.238.262.238.713zm-.332-.097q-.004-.273-.154-.435-.147-.163-.393-.163-.278 0-.446.157-.166.157-.19.442zM103.723 150.653h.332v2.807h-.332zM105.533 151.672q-.267 0-.422.21-.156.207-.156.57 0 .362.154.572.155.207.424.207.265 0 .42-.21.155-.208.155-.57 0-.358-.155-.568-.155-.21-.42-.21zm0-.281q.433 0 .68.281.247.282.247.78 0 .496-.247.78-.247.28-.68.28-.435 0-.682-.28-.246-.284-.246-.78 0-.498.246-.78.247-.281.682-.281zM107.332 153.157v1.072h-.334v-2.79h.334v.307q.105-.18.263-.267.161-.088.383-.088.368 0 .597.292.231.292.231.769 0 .476-.23.768-.23.293-.598.293-.222 0-.383-.087-.158-.088-.263-.269zm1.13-.705q0-.367-.152-.574-.15-.21-.413-.21-.264 0-.415.21-.15.207-.15.574 0 .366.15.575.151.208.415.208.263 0 .413-.208.152-.209.152-.575zM111.085 152.367v.162h-1.526q.021.343.205.524.186.178.516.178.192 0 .37-.047.18-.047.358-.14v.314q-.179.075-.367.115-.187.04-.38.04-.484 0-.767-.282-.282-.281-.282-.761 0-.496.267-.787.27-.292.724-.292.408 0 .644.263.238.262.238.713zm-.332-.097q-.004-.273-.153-.435-.148-.163-.393-.163-.278 0-.446.157-.166.157-.191.442zM112.801 151.75q-.056-.033-.122-.047-.065-.016-.145-.016-.281 0-.433.184-.15.182-.15.525v1.065h-.333v-2.022h.333v.314q.105-.184.273-.272.168-.09.408-.09.034 0 .076.005.041.004.092.012z" style="font-style:normal;font-variant:normal;font-weight:400;font-stretch:normal;font-size:3.69565701px;font-family:Montserrat;-inkscape-font-specification:Montserrat;fill:#fff;stroke-width:.14549598" transform="translate(-75.942 -138.138)"/></g><g aria-label="Antti" style="font-style:normal;font-variant:normal;font-weight:400;font-stretch:normal;font-size:7.05555582px;line-height:1.25;font-family:Montserrat;-inkscape-font-specification:Montserrat;letter-spacing:0;word-spacing:0;fill:#fff;fill-opacity:1;stroke:none;stroke-width:.26458332"><path d="M80 143.094h-2.074l-.328.937h-1.333l1.905-5.143h1.582l1.905 5.143h-1.333zm-1.744-.954h1.41l-.703-2.047zM86.163 141.682v2.35h-1.24v-1.799q0-.5-.024-.69-.021-.189-.076-.278-.073-.12-.197-.186-.124-.07-.282-.07-.386 0-.606.3-.22.297-.22.824v1.898h-1.234v-3.858h1.233v.565q.28-.338.593-.496.313-.162.692-.162.668 0 1.013.41.348.41.348 1.192zM88.654 139.077v1.096h1.271v.882h-1.271v1.636q0 .269.107.365.106.093.423.093h.634v.882h-1.057q-.73 0-1.037-.303-.304-.307-.304-1.037v-1.636h-.613v-.882h.613v-1.096zM92.026 139.077v1.096h1.272v.882h-1.272v1.636q0 .269.107.365.107.093.424.093h.634v.882h-1.058q-.73 0-1.037-.303-.303-.307-.303-1.037v-1.636h-.613v-.882h.613v-1.096zM94.052 140.173h1.234v3.858h-1.234zm0-1.502h1.234v1.006h-1.234z" style="font-style:normal;font-variant:normal;font-weight:700;font-stretch:normal;font-size:7.05555582px;font-family:Montserrat;-inkscape-font-specification:'Montserrat Bold';fill:#fff;stroke-width:.26458332" transform="translate(-75.942 -138.138)"/></g><text y="150.156" x="79.942" style="font-style:normal;font-variant:normal;font-weight:400;font-stretch:normal;font-size:10.58333302px;line-height:1.25;font-family:Montserrat;-inkscape-font-specification:Montserrat;letter-spacing:-23.25416946px;word-spacing:0;fill:#000;fill-opacity:1;stroke:none;stroke-width:.26458332" xml:space="preserve" transform="translate(-75.942 -138.138)"><tspan style="letter-spacing:-23.25416946px;stroke-width:.26458332" y="150.156" x="79.942"> </tspan></text><g aria-label="Kotiranta" style="font-style:normal;font-variant:normal;font-weight:700;font-stretch:normal;font-size:10.58333302px;font-family:Montserrat;-inkscape-font-specification:'Montserrat Bold';text-align:start;letter-spacing:-.50917828px;word-spacing:0;text-anchor:start;fill:#fff;fill-opacity:1;stroke:none;stroke-width:.25458911"><path d="M76.446 144.669h1.326v1.877l1.912-1.877h1.54l-2.477 2.435 2.732 2.708h-1.66l-2.047-2.026v2.026h-1.326zM83.57 146.743q-.41 0-.627.296-.213.293-.213.847 0 .555.213.851.217.293.627.293.403 0 .617-.293.213-.296.213-.85 0-.555-.213-.848-.214-.296-.617-.296zm0-.882q.996 0 1.554.537.562.537.562 1.488t-.562 1.489q-.558.537-1.554.537-.999 0-1.564-.537-.561-.538-.561-1.489 0-.95.561-1.488.565-.537 1.564-.537zM87.928 144.858v1.096H89.2v.882h-1.272v1.636q0 .269.107.365.107.093.424.093h.634v.882h-1.058q-.73 0-1.037-.303-.303-.307-.303-1.037v-1.636h-.613v-.882h.613v-1.096zM89.954 145.954h1.233v3.858h-1.233zm0-1.502h1.233v1.006h-1.233zM95.239 147.004q-.162-.075-.324-.11-.159-.038-.32-.038-.476 0-.734.307-.255.303-.255.871v1.778h-1.234v-3.858h1.234v.634q.237-.38.544-.552.31-.175.74-.175.063 0 .135.007.073.003.21.02zM97.581 148.076q-.385 0-.582.13-.193.132-.193.387 0 .234.155.368.159.131.438.131.348 0 .585-.248.238-.251.238-.627v-.141zm1.885-.465v2.201h-1.244v-.572q-.248.352-.558.514-.31.158-.754.158-.6 0-.975-.348-.372-.351-.372-.91 0-.678.465-.995.468-.317 1.467-.317h.727v-.097q0-.292-.23-.427-.231-.138-.72-.138-.397 0-.738.08-.341.079-.634.237v-.94q.396-.097.796-.145.4-.051.8-.051 1.043 0 1.505.413.465.41.465 1.337zM104.492 147.463v2.35h-1.24v-1.799q0-.5-.024-.69-.02-.189-.076-.278-.072-.12-.196-.186-.124-.07-.283-.07-.386 0-.606.3-.22.297-.22.824v1.898h-1.234v-3.858h1.233v.565q.28-.338.593-.496.314-.162.692-.162.669 0 1.013.41.348.41.348 1.192zM106.983 144.858v1.096h1.271v.882h-1.27v1.636q0 .269.106.365.107.093.424.093h.634v.882h-1.058q-.73 0-1.037-.303-.303-.307-.303-1.037v-1.636h-.613v-.882h.613v-1.096zM110.738 148.076q-.386 0-.582.13-.193.132-.193.387 0 .234.155.368.159.131.438.131.348 0 .585-.248.238-.251.238-.627v-.141zm1.885-.465v2.201h-1.244v-.572q-.248.352-.558.514-.31.158-.755.158-.599 0-.975-.348-.372-.351-.372-.91 0-.678.466-.995.468-.317 1.467-.317h.727v-.097q0-.292-.23-.427-.232-.138-.72-.138-.397 0-.738.08-.341.079-.634.237v-.94q.396-.097.796-.145.4-.051.8-.051 1.043 0 1.505.413.465.41.465 1.337z" style="font-style:normal;font-variant:normal;font-weight:700;font-stretch:normal;font-size:7.05555582px;font-family:Montserrat;-inkscape-font-specification:'Montserrat Bold';text-align:start;letter-spacing:0;text-anchor:start;fill:#fff;stroke-width:.25458911" transform="translate(-75.942 -138.138)"/></g><text xml:space="preserve" style="font-style:normal;font-variant:normal;font-weight:400;font-stretch:normal;font-size:10.58333397px;line-height:1.25;font-family:Montserrat;-inkscape-font-specification:Montserrat;letter-spacing:-26.45833588px;word-spacing:0;fill:#000;fill-opacity:1;stroke:none;stroke-width:.26458335" x="98.033" y="115.446" transform="translate(-75.942 -138.138)"/><text xml:space="preserve" style="font-style:normal;font-variant:normal;font-weight:400;font-stretch:normal;font-size:10.58333397px;line-height:1.25;font-family:Montserrat;-inkscape-font-specification:Montserrat;letter-spacing:-26.45833588px;word-spacing:0;fill:#000;fill-opacity:1;stroke:none;stroke-width:.26458335" x="72.091" y="115.041" transform="translate(-75.942 -138.138)"/></svg>